<svg xmlns="http://www.w3.org/2000/svg" version="1" width="230.728" height="70.464">
  <rect width="230.728" height="70.464" fill="#dc5014"/>
  <path d="M203.315 34.167c16.78-25.366-1.972 2.906 15.99-24.164H171.69c18.103 27.227-1.278-1.88 15.99 24.164-18.473 27.824 3.51-5.328-17.41 26.297h50.46c-18.477-27.804 2.222 3.344-17.413-26.297zm-85.68 26.282l50.855.013-18.58-50.423-13.38-.03-18.895 50.44zm-57.885.013h56.502v-50.46l-19.52.007-8.864 27.453-8.573-27.46H59.75v50.46zm-28.784 0c18.54 0 25.23-9.645 25.23-26.058.33-13.292-8.916-24.613-23.452-24.402H10v50.46h20.966z" fill="#fff" fill-rule="evenodd"/>
</svg>
